<svg width="21" height="21" viewBox="0 0 21 21" fill="none" xmlns="http://www.w3.org/2000/svg">
<g clip-path="url(#clip0_13_48)">
<path d="M7.67407 9.79104H8.88359L8.27883 7.92889L7.67407 9.79104Z" fill="#553F1E"/>
<path d="M10.5 0C4.70077 0 0 4.01641 0 8.97155C0 12.1751 1.96572 14.9891 4.92188 16.5733C4.76135 17.174 3.88803 20.4398 3.8537 20.6969C3.8537 20.6969 3.8325 20.8895 3.9476 20.9628C3.98611 20.9839 4.02817 20.9962 4.07123 20.999C4.11428 21.0018 4.15741 20.9951 4.19798 20.9792C4.52913 20.9289 8.03452 18.2648 8.64029 17.8063C9.25647 17.8991 9.87791 17.9448 10.5 17.9431C16.2992 17.9431 21 13.9267 21 8.97155C21 4.01641 16.2992 0 10.5 0ZM5.30351 7.57877C5.29038 8.84792 5.31361 10.1827 5.29442 11.4322C5.28837 11.8315 5.07635 11.9508 4.78962 12.0646C4.75722 12.077 4.72233 12.0796 4.68865 12.0722C4.36053 12.0022 4.09904 11.8753 4.09096 11.4333C4.06774 10.1849 4.09803 8.84792 4.08187 7.57877C3.80423 7.56674 3.40846 7.59081 3.15101 7.57877C2.79361 7.55361 2.54524 7.30744 2.56038 6.94092C2.57553 6.5744 2.75625 6.31072 3.15707 6.30416C4.10409 6.28884 5.27726 6.28884 6.22428 6.30416C6.62813 6.31072 6.80784 6.57549 6.81995 6.94092C6.83207 7.30635 6.58774 7.55361 6.23135 7.57877C5.97692 7.59081 5.58216 7.56674 5.30351 7.57877ZM10.392 12.0044C10.2709 12.0641 10.1394 12.0951 10.0063 12.0952C9.75389 12.0952 9.56106 11.9858 9.50149 11.8053L9.19861 10.954H7.35505L7.05216 11.8053C6.99361 11.9836 6.80077 12.0952 6.54736 12.0952C6.41461 12.0952 6.28341 12.0642 6.16269 12.0044C5.9951 11.9212 5.83457 11.6915 6.01832 11.0722L7.47115 6.93873C7.53208 6.75666 7.6412 6.5981 7.78487 6.48289C7.92853 6.36768 8.10036 6.30095 8.27885 6.29103C8.4572 6.30201 8.62869 6.36928 8.77221 6.48456C8.91572 6.59984 9.02498 6.75809 9.08654 6.93983L10.5343 11.0711C10.7191 11.6915 10.5586 11.9256 10.392 12.0044ZM13.4531 12.0044H11.5096C11.3591 12.0076 11.2135 11.9461 11.1047 11.8333C10.9959 11.7206 10.9328 11.5657 10.9291 11.4026V6.94748C10.9355 6.77444 11.0035 6.61081 11.1188 6.49084C11.234 6.37088 11.3877 6.30389 11.5475 6.30389C11.7073 6.30389 11.8609 6.37088 11.9762 6.49084C12.0914 6.61081 12.1594 6.77444 12.1659 6.94748V10.8042H13.4531C13.5289 10.7992 13.6047 10.8111 13.6761 10.8391C13.7474 10.8671 13.8127 10.9106 13.868 10.967C13.9232 11.0233 13.9672 11.0914 13.9973 11.1668C14.0274 11.2423 14.0429 11.3237 14.0429 11.4059C14.0429 11.4881 14.0274 11.5695 13.9973 11.645C13.9672 11.7205 13.9232 11.7885 13.868 11.8448C13.8127 11.9012 13.7474 11.9447 13.6761 11.9727C13.6047 12.0007 13.5289 12.0126 13.4531 12.0077V12.0044ZM18.1983 11.5098C18.1826 11.6393 18.1315 11.7608 18.0517 11.8587C17.9719 11.9566 17.8669 12.0264 17.7503 12.0593C17.6337 12.0922 17.5106 12.0866 17.3969 12.0433C17.2832 12 17.184 11.9209 17.112 11.8162L15.6914 9.7779L15.4814 10.0055V11.4376C15.4814 11.6117 15.4176 11.7787 15.304 11.9018C15.1904 12.0249 15.0363 12.0941 14.8757 12.0941C14.715 12.0941 14.5609 12.0249 14.4473 11.9018C14.3337 11.7787 14.2699 11.6117 14.2699 11.4376V6.95186C14.2699 6.77776 14.3337 6.61079 14.4473 6.48768C14.5609 6.36457 14.715 6.2954 14.8757 6.2954C15.0363 6.2954 15.1904 6.36457 15.304 6.48768C15.4176 6.61079 15.4814 6.77776 15.4814 6.95186V8.35886L17.1715 6.52735C17.2158 6.47994 17.2683 6.44256 17.326 6.41739C17.3838 6.39222 17.4455 6.37976 17.5077 6.38074C17.659 6.38505 17.8035 6.44975 17.9134 6.56243C18.0234 6.6751 18.091 6.82782 18.1034 6.99125C18.1089 7.06418 18.0999 7.13752 18.0771 7.20639C18.0543 7.27526 18.0181 7.33806 17.9712 7.39059L16.588 8.88621L18.0792 11.0274C18.1757 11.1662 18.2175 11.3409 18.1953 11.5131L18.1983 11.5098Z" fill="#553F1E"/>
</g>
<defs>
<clipPath id="clip0_13_48">
<rect width="21" height="21" fill="white"/>
</clipPath>
</defs>
</svg>
