<svg width="11" height="17" viewBox="0 0 11 17" fill="none" xmlns="http://www.w3.org/2000/svg">
<path d="M5.44228 17C3.93486 17 2.70475 16.7627 1.75195 16.2881C0.799154 15.8135 0.322754 15.2008 0.322754 14.45C0.322754 13.9542 0.528957 13.5221 0.941363 13.1538C1.35377 12.7854 1.9226 12.495 2.64787 12.2825L3.13849 13.8975C2.89674 13.9683 2.67631 14.0569 2.47722 14.1631C2.27813 14.2694 2.14303 14.365 2.07192 14.45C2.2568 14.6767 2.68342 14.875 3.3518 15.045C4.02019 15.215 4.71701 15.3 5.44228 15.3C6.16754 15.3 6.86792 15.215 7.54341 15.045C8.21891 14.875 8.64909 14.6767 8.83396 14.45C8.76285 14.365 8.62776 14.2694 8.42866 14.1631C8.22957 14.0569 8.00915 13.9683 7.76739 13.8975L8.25801 12.2825C8.98328 12.495 9.54856 12.7854 9.95385 13.1538C10.3591 13.5221 10.5618 13.9542 10.5618 14.45C10.5618 15.2008 10.0854 15.8135 9.1326 16.2881C8.1798 16.7627 6.94969 17 5.44228 17ZM5.44228 11.3263C5.69825 10.8588 5.96845 10.4302 6.25287 10.0406C6.53728 9.65104 6.81459 9.27917 7.08479 8.925C7.61096 8.245 8.03048 7.63229 8.34334 7.08687C8.6562 6.54146 8.81263 5.865 8.81263 5.0575C8.81263 4.1225 8.48555 3.32917 7.83139 2.6775C7.17723 2.02583 6.38086 1.7 5.44228 1.7C4.5037 1.7 3.70733 2.02583 3.05317 2.6775C2.399 3.32917 2.07192 4.1225 2.07192 5.0575C2.07192 5.865 2.22835 6.54146 2.54121 7.08687C2.85407 7.63229 3.27359 8.245 3.79976 8.925C4.06996 9.27917 4.34727 9.65104 4.63168 10.0406C4.9161 10.4302 5.1863 10.8588 5.44228 11.3263ZM5.44228 14.45C5.28585 14.45 5.14364 14.404 5.01565 14.3119C4.88766 14.2198 4.79523 14.0958 4.73834 13.94C4.41126 12.9342 3.99886 12.0913 3.50112 11.4113C3.00339 10.7312 2.51988 10.0796 2.05059 9.45625C1.59552 8.83292 1.20089 8.18833 0.866703 7.5225C0.532512 6.85667 0.365417 6.035 0.365417 5.0575C0.365417 3.64083 0.856037 2.44375 1.83728 1.46625C2.81852 0.48875 4.02019 0 5.44228 0C6.86437 0 8.06603 0.48875 9.04727 1.46625C10.0285 2.44375 10.5191 3.64083 10.5191 5.0575C10.5191 6.035 10.3556 6.85667 10.0285 7.5225C9.70143 8.18833 9.30325 8.83292 8.83396 9.45625C8.37889 10.0796 7.89894 10.7312 7.39409 11.4113C6.88925 12.0913 6.47329 12.9342 6.14621 13.94C6.08933 14.0958 5.99689 14.2198 5.8689 14.3119C5.74091 14.404 5.59871 14.45 5.44228 14.45ZM5.44228 6.86375C5.94001 6.86375 6.36663 6.68667 6.72216 6.3325C7.07768 5.97833 7.25544 5.55333 7.25544 5.0575C7.25544 4.56167 7.07768 4.13667 6.72216 3.7825C6.36663 3.42833 5.94001 3.25125 5.44228 3.25125C4.94454 3.25125 4.51792 3.42833 4.1624 3.7825C3.80687 4.13667 3.62911 4.56167 3.62911 5.0575C3.62911 5.55333 3.80687 5.97833 4.1624 6.3325C4.51792 6.68667 4.94454 6.86375 5.44228 6.86375Z" fill="#949494"/>
</svg>
