<svg width="77" height="77" viewBox="0 0 77 77" fill="none" xmlns="http://www.w3.org/2000/svg">
<path d="M38.5585 8.02109C26.5612 8.02109 16.8438 17.7439 16.8438 29.7359C16.8362 34.4195 18.3499 38.979 21.1573 42.7281L35.0859 66.8537C35.1667 67.0092 35.2475 67.164 35.3469 67.3065L35.3777 67.3596L35.3861 67.355C35.7487 67.8602 36.2269 68.2714 36.7808 68.5542C37.3347 68.8369 37.9482 68.9831 38.5701 68.9805C39.7682 68.9805 40.8123 68.4353 41.5308 67.5952L41.5669 67.616L41.7048 67.3773C41.908 67.1032 42.0882 66.8106 42.2184 66.488L55.8643 42.8505C58.7311 39.08 60.2801 34.4724 60.2733 29.7359C60.2733 17.7439 50.5559 8.02109 38.5585 8.02109ZM38.3437 40.7446C32.4324 40.7446 27.6446 35.9544 27.6446 30.0454C27.6446 24.1372 32.4324 19.3462 38.3437 19.3462C44.255 19.3462 49.0429 24.1372 49.0429 30.0454C49.0429 35.9536 44.255 40.7446 38.3437 40.7446Z" fill="#94C020"/>
<rect x="20.2129" y="14.4375" width="33.6875" height="33.6875" rx="16.8438" fill="#94C020"/>
<circle cx="48.6954" cy="29.4915" r="5.20422" fill="#597313"/>
<circle cx="29.2667" cy="29.4914" r="5.20422" fill="#597313"/>
<circle cx="38.7728" cy="23.3574" r="5.55116" fill="#597313"/>
<rect x="37.6631" y="24.6064" width="2.08169" height="19.4291" rx="1.04084" fill="#645023"/>
<rect x="46.9404" y="29.2198" width="2.08169" height="12.4901" rx="1.04084" transform="rotate(47.6241 46.9404 29.2198)" fill="#645023"/>
<rect x="29.3359" y="30.9932" width="2.08169" height="12.4901" rx="1.04084" transform="rotate(-44.5127 29.3359 30.9932)" fill="#645023"/>
</svg>
